<svg width="24" height="21" viewBox="0 0 24 21" fill="none" xmlns="http://www.w3.org/2000/svg">
<path fill-rule="evenodd" clip-rule="evenodd" d="M1 2.58333C1 1.70888 1.44772 1 2 1H22C22.5523 1 23 1.70888 23 2.58333C23 3.45778 22.5523 4.16667 22 4.16667H2C1.44772 4.16667 1 3.45778 1 2.58333Z" fill="white" stroke="#31405B" stroke-linecap="round" stroke-linejoin="round"/>
<path fill-rule="evenodd" clip-rule="evenodd" d="M1 7.86117C1 6.98671 1.44772 6.27783 2 6.27783H22C22.5523 6.27783 23 6.98671 23 7.86117C23 8.73562 22.5523 9.4445 22 9.4445H2C1.44772 9.4445 1 8.73562 1 7.86117Z" fill="white" stroke="#31405B" stroke-linecap="round" stroke-linejoin="round"/>
<path fill-rule="evenodd" clip-rule="evenodd" d="M1 13.1385C1 12.2641 1.44772 11.5552 2 11.5552H22C22.5523 11.5552 23 12.2641 23 13.1385C23 14.013 22.5523 14.7218 22 14.7218H2C1.44772 14.7218 1 14.013 1 13.1385Z" fill="white" stroke="#31405B" stroke-linecap="round" stroke-linejoin="round"/>
<path fill-rule="evenodd" clip-rule="evenodd" d="M1 18.4168C1 17.5424 1.44772 16.8335 2 16.8335H22C22.5523 16.8335 23 17.5424 23 18.4168C23 19.2913 22.5523 20.0002 22 20.0002H2C1.44772 20.0002 1 19.2913 1 18.4168Z" fill="white" stroke="#31405B" stroke-linecap="round" stroke-linejoin="round"/>
</svg>
